@startuml

class juego



class Juego
class Jugador
class IA 
class Moto 
class Tron 
class Arena 
class Oponente
class Muro 
class Jet 
class Estela 
class Colisionable

Moto o== Arena 
Tron o== Moto 
Oponente O== Moto 

Jugador o== Tron
IA o== Oponente 

Moto *-- Estela
Arena *-- Muro 
Arena *-- Jet

Moto --|> Colisionable 
Jet --|> Colisionable
Muro --|> Colisionable
Estela --|> Colisionable




@endl

